<svg xmlns="http://www.w3.org/2000/svg" viewBox="0 0 32 32" width="32" height="32">
  <defs>
    <linearGradient id="brand-grad" x1="0%" y1="0%" x2="100%" y2="100%">
      <stop offset="0%" stop-color="#4f46e5" />
      <stop offset="50%" stop-color="#7c3aed" />
      <stop offset="100%" stop-color="#db2777" />
    </linearGradient>
  </defs>
  <!-- Background Badge -->
  <rect width="32" height="32" rx="8" fill="url(#brand-grad)" />
  <!-- Stethoscope Icon -->
  <g fill="none" stroke="#ffffff" stroke-width="2" stroke-linecap="round" stroke-linejoin="round" transform="translate(4, 4)">
    <path d="M4.8 2.3A.3.3 0 1 0 5 2H4a2 2 0 0 0-2 2v5a6 6 0 0 0 6 6v0a6 6 0 0 0 6-6V4a2 2 0 0 0-2-2h-1a.2.2 0 1 0 .3.3" />
    <path d="M8 15v1a6 6 0 0 0 6 6h2a6 6 0 0 0 6-6v-4" />
    <circle cx="20" cy="10" r="2" />
  </g>
</svg>
